<svg width="100" height="100" viewBox="0 0 100 100" fill="none" xmlns="http://www.w3.org/2000/svg">
  <rect width="100" height="100" rx="50" fill="#1DA1F2" />
  <path d="M79.92 30.89c-2.12 0.94-4.39 1.58-6.78 1.86c2.44-1.46 4.31-3.77 5.19-6.52c-2.28 1.35-4.81 2.34-7.5 2.87c-2.16-2.3-5.23-3.74-8.63-3.74c-6.53 0-11.82 5.3-11.82 11.83c0 0.93 0.1 1.83 0.31 2.69c-9.82-0.49-18.53-5.2-24.36-12.35c-1.02 1.75-1.6 3.77-1.6 5.93c0 4.1 2.09 7.73 5.27 9.85c-1.94-0.06-3.76-0.59-5.36-1.48c0 0.05 0 0.1 0 0.15c0 5.73 4.08 10.52 9.49 11.6c-0.99 0.27-2.04 0.41-3.12 0.41c-0.76 0-1.5-0.07-2.23-0.21c1.51 4.7 5.88 8.12 11.06 8.22c-4.05 3.18-9.16 5.07-14.71 5.07c-0.96 0-1.9-0.06-2.82-0.16c5.24 3.36 11.46 5.32 18.15 5.32c21.78 0 33.69-18.05 33.69-33.69c0-0.51-0.01-1.02-0.03-1.53c2.31-1.67 4.32-3.76 5.91-6.13z" fill="white" />
  <path d="M48.25 68.5L25.5 68.5L25.5 77L48.25 77L48.25 68.5Z" fill="white" />
  <path d="M48.25 60L25.5 60L25.5 68.5L48.25 68.5L48.25 60Z" fill="white" />
  <path d="M37 29L25.5 29L25.5 60L37 60L37 29Z" fill="white" />
  <path d="M48.25 29L37 29L37 60L48.25 60L48.25 29Z" fill="white" />
  <path d="M48.25 35L58.25 29L58.25 77L48.25 77L48.25 35Z" fill="white" />
</svg> 